<svg width="30" height="32" viewBox="0 0 30 32" fill="none" xmlns="http://www.w3.org/2000/svg">
<path d="M30 15.9677C30 7.15035 23.283 0 15 0C6.717 0 0 7.15035 0 15.9677C0 24.7851 6.717 31.9355 15 31.9355C15.0881 31.9355 15.1758 31.9335 15.2637 31.9318V19.5016H12.041V15.5036H15.2637V12.5615C15.2637 9.14948 17.2204 7.2924 20.0796 7.2924C21.4487 7.2924 22.6257 7.40106 22.9688 7.44955V11.0156H20.9972C19.4417 11.0156 19.1405 11.8026 19.1405 12.9572V15.5036H22.8598L22.375 19.5016H19.1405V31.3188C25.4102 29.4054 30 23.2562 30 15.9677Z" fill="#F7DF1E"/>
</svg>
