<svg width="64" height="64" viewBox="0 0 64 64" fill="none" xmlns="http://www.w3.org/2000/svg">
<path d="M56.3264 18.7956C56.2968 18.7016 56.2491 18.6144 56.1858 18.5389C56.1226 18.4634 56.0451 18.4011 55.9577 18.3555C55.7813 18.2635 55.5756 18.2454 55.3859 18.3051C55.1961 18.3647 55.0378 18.4973 54.9459 18.6737C54.8539 18.8501 54.8357 19.0558 54.8954 19.2456C55.5322 21.2773 55.7732 23.4124 55.6051 25.5349C55.5892 25.7332 55.6528 25.9296 55.7817 26.081C55.9106 26.2325 56.0944 26.3265 56.2926 26.3424C56.313 26.344 56.3333 26.3449 56.3534 26.3449C56.5418 26.3447 56.7232 26.2736 56.8616 26.1457C56.9999 26.0179 57.0851 25.8426 57.1001 25.6548C57.2837 23.34 57.021 21.0116 56.3263 18.7959L56.3264 18.7956Z" fill="#F7F4F4"/>
<path d="M54.8797 15.4395C54.5165 14.7895 54.1134 14.1627 53.6726 13.5626C53.5542 13.4042 53.3779 13.299 53.1822 13.2699C52.9865 13.2408 52.7873 13.2902 52.6279 13.4073C52.4685 13.5245 52.3618 13.6998 52.3311 13.8953C52.3003 14.0907 52.3481 14.2903 52.4639 14.4507C52.8678 15.0008 53.2373 15.5753 53.5702 16.171C53.6179 16.2577 53.6822 16.3342 53.7595 16.3959C53.8368 16.4577 53.9256 16.5035 54.0207 16.5308C54.1158 16.5581 54.2153 16.5664 54.3136 16.555C54.4119 16.5437 54.507 16.513 54.5934 16.4647C54.6798 16.4165 54.7558 16.3516 54.817 16.2739C54.8782 16.1961 54.9234 16.107 54.95 16.0117C54.9766 15.9164 54.9841 15.8168 54.972 15.7186C54.96 15.6204 54.9286 15.5255 54.8797 15.4395Z" fill="#F7F4F4"/>
<path d="M36.9863 53.5845C37.5054 53.5845 38.013 53.4305 38.4446 53.1421C38.8763 52.8536 39.2128 52.4437 39.4114 51.964C39.6101 51.4844 39.6621 50.9566 39.5608 50.4474C39.4595 49.9382 39.2095 49.4704 38.8424 49.1033C38.4753 48.7362 38.0076 48.4862 37.4984 48.3849C36.9892 48.2836 36.4614 48.3356 35.9817 48.5343C35.5021 48.733 35.0921 49.0694 34.8037 49.5011C34.5152 49.9328 34.3613 50.4403 34.3613 50.9595C34.3621 51.6554 34.6389 52.3226 35.131 52.8147C35.6231 53.3069 36.2903 53.5837 36.9863 53.5845ZM36.9863 49.8345C37.2088 49.8345 37.4263 49.9005 37.6113 50.0241C37.7963 50.1477 37.9405 50.3234 38.0256 50.529C38.1108 50.7345 38.1331 50.9607 38.0896 51.1789C38.0462 51.3972 37.9391 51.5976 37.7818 51.755C37.6244 51.9123 37.424 52.0194 37.2057 52.0629C36.9875 52.1063 36.7613 52.084 36.5557 51.9988C36.3502 51.9137 36.1745 51.7695 36.0509 51.5845C35.9272 51.3995 35.8613 51.182 35.8613 50.9595C35.8616 50.6612 35.9802 50.3752 36.1911 50.1643C36.402 49.9534 36.688 49.8348 36.9863 49.8345Z" fill="#F7F4F4"/>
<path d="M44.4863 53.5845C45.0054 53.5845 45.513 53.4305 45.9446 53.1421C46.3763 52.8536 46.7128 52.4437 46.9114 51.964C47.1101 51.4844 47.1621 50.9566 47.0608 50.4474C46.9595 49.9382 46.7095 49.4704 46.3424 49.1033C45.9753 48.7362 45.5076 48.4862 44.9984 48.3849C44.4892 48.2836 43.9614 48.3356 43.4817 48.5343C43.0021 48.733 42.5921 49.0694 42.3037 49.5011C42.0152 49.9328 41.8613 50.4403 41.8613 50.9595C41.8621 51.6554 42.1389 52.3226 42.631 52.8147C43.1231 53.3069 43.7903 53.5837 44.4863 53.5845ZM44.4863 49.8345C44.7088 49.8345 44.9263 49.9005 45.1113 50.0241C45.2963 50.1477 45.4405 50.3234 45.5256 50.529C45.6108 50.7345 45.6331 50.9607 45.5896 51.1789C45.5462 51.3972 45.4391 51.5976 45.2818 51.755C45.1244 51.9123 44.924 52.0194 44.7057 52.0629C44.4875 52.1063 44.2613 52.084 44.0557 51.9988C43.8502 51.9137 43.6745 51.7695 43.5509 51.5845C43.4272 51.3995 43.3613 51.182 43.3613 50.9595C43.3616 50.6612 43.4802 50.3752 43.6911 50.1643C43.902 49.9534 44.188 49.8348 44.4863 49.8345Z" fill="#F7F4F4"/>
<path d="M29.4863 53.5845C30.0054 53.5845 30.513 53.4305 30.9446 53.1421C31.3763 52.8536 31.7128 52.4437 31.9114 51.964C32.1101 51.4844 32.1621 50.9566 32.0608 50.4474C31.9595 49.9382 31.7095 49.4704 31.3424 49.1033C30.9753 48.7362 30.5076 48.4862 29.9984 48.3849C29.4892 48.2836 28.9614 48.3356 28.4817 48.5343C28.0021 48.733 27.5921 49.0694 27.3037 49.5011C27.0152 49.9328 26.8613 50.4403 26.8613 50.9595C26.8621 51.6554 27.1389 52.3226 27.631 52.8147C28.1231 53.3069 28.7903 53.5837 29.4863 53.5845ZM29.4863 49.8345C29.7088 49.8345 29.9263 49.9005 30.1113 50.0241C30.2963 50.1477 30.4405 50.3234 30.5256 50.529C30.6108 50.7345 30.6331 50.9607 30.5896 51.1789C30.5462 51.3972 30.4391 51.5976 30.2818 51.755C30.1244 51.9123 29.924 52.0194 29.7057 52.0629C29.4875 52.1063 29.2613 52.084 29.0557 51.9988C28.8502 51.9137 28.6745 51.7695 28.5509 51.5845C28.4272 51.3995 28.3613 51.182 28.3613 50.9595C28.3616 50.6612 28.4802 50.3752 28.6911 50.1643C28.902 49.9534 29.188 49.8348 29.4863 49.8345Z" fill="#F7F4F4"/>
<path d="M33.4605 22.3804C33.1688 22.7503 32.9539 23.1746 32.8283 23.6286C32.7027 24.0826 32.6689 24.5571 32.729 25.0243C32.8418 25.8895 33.2658 26.6841 33.9218 27.2595C34.5778 27.8349 35.4208 28.1518 36.2934 28.1509C36.4459 28.1509 36.5983 28.1413 36.7496 28.1222C37.218 28.0646 37.6705 27.9153 38.0811 27.6827C38.4918 27.4501 38.8525 27.1388 39.1427 26.7667C39.4344 26.3968 39.6494 25.9724 39.775 25.5184C39.9006 25.0645 39.9343 24.59 39.8742 24.1228C39.7797 23.4197 39.4799 22.7601 39.0123 22.2265C38.5447 21.693 37.9302 21.3092 37.2456 21.1232C36.5609 20.9372 35.8367 20.9573 35.1634 21.1809C34.4901 21.4045 33.8978 21.8218 33.4605 22.3804ZM34.6417 23.3054C34.8116 23.0878 35.0226 22.9059 35.2629 22.77C35.5031 22.6341 35.7678 22.547 36.0417 22.5135C36.1304 22.5023 36.2197 22.4967 36.3091 22.4967C36.8167 22.4951 37.3076 22.6784 37.6899 23.0123C38.0722 23.3463 38.3198 23.808 38.3865 24.3113C38.4211 24.582 38.4013 24.8568 38.3283 25.1198C38.2554 25.3828 38.1306 25.6285 37.9615 25.8427C37.7067 26.1681 37.3618 26.4113 36.9697 26.5421C36.5776 26.6729 36.1557 26.6855 35.7566 26.5783C35.3574 26.4711 34.9986 26.2488 34.7249 25.9391C34.4511 25.6294 34.2746 25.2461 34.2171 24.8368C34.1824 24.566 34.2021 24.2911 34.275 24.028C34.3479 23.765 34.4726 23.5192 34.6417 23.3049V23.3054Z" fill="#F7F4F4"/>
<path d="M61.4491 21.3434C60.9997 17.8254 59.7088 14.4676 57.6856 11.5546C55.3515 8.21274 52.1482 5.57263 48.422 3.9199C44.6958 2.26717 40.5886 1.66474 36.5447 2.17777C30.7453 2.90277 25.512 5.88664 21.8111 10.5778C19.0471 14.0818 17.4255 18.1778 17.0661 22.4245C14.9407 22.5965 12.9578 23.5618 11.5113 25.1285C10.0648 26.6952 9.26065 28.7488 9.25859 30.8811V38.7735C9.25727 39.2059 9.08467 39.6201 8.77857 39.9255C8.47248 40.2309 8.05785 40.4026 7.62547 40.4029C6.757 40.3989 5.89629 40.5664 5.09275 40.896C4.28921 41.2255 3.55867 41.7105 2.94306 42.3231C2.32745 42.9357 1.8389 43.6638 1.50546 44.4657C1.17201 45.2677 1.00024 46.1275 1 46.996C0.999762 47.8645 1.17106 48.7245 1.50406 49.5266C1.83707 50.3287 2.32522 51.0571 2.94049 51.67C3.55576 52.283 4.28604 52.7684 5.08939 53.0983C5.89275 53.4283 6.75337 53.5963 7.62184 53.5928H17.8557C17.995 54.262 18.36 54.8631 18.8895 55.2954C19.419 55.7277 20.0809 55.9651 20.7645 55.9678H53.9752C55.6195 55.9678 57.0086 54.6188 57.0086 52.9744V48.7265C56.9991 48.022 56.7443 47.3428 56.288 46.806C55.8316 46.2691 55.2024 45.9082 54.5086 45.7854V40.3331C57.0929 37.9484 59.0708 34.9813 60.2779 31.6785C61.485 28.3757 61.8865 24.8326 61.4491 21.3434ZM22.9875 11.5073C26.4426 7.12702 31.3225 4.34277 36.7282 3.66614C41.0956 3.10665 45.5279 3.94904 49.3855 6.07177C49.448 6.10614 49.5105 6.14264 49.5722 6.17777L36.5597 17.4566C36.3081 17.4615 36.057 17.4797 35.8073 17.511C34.8883 17.6238 34.0006 17.9167 33.195 18.373C32.3893 18.8293 31.6815 19.4399 31.1121 20.17C30.5408 20.8944 30.1197 21.7256 29.8737 22.6147C29.6276 23.5039 29.5614 24.4332 29.679 25.3483C30.1255 28.8836 33.1676 31.4741 36.6678 31.4741C36.9672 31.4741 37.2663 31.4552 37.5633 31.4176C37.8014 31.3876 38.036 31.346 38.2671 31.2926L53.0086 40.4456V41.9678H21.6336V38.9073C21.6529 36.7787 21.2082 34.6716 20.3306 32.7323C19.4434 30.7925 18.8652 28.7258 18.617 26.6073C17.9748 21.2484 19.5336 15.8858 22.9875 11.5073ZM36.7015 18.9553C38.0468 18.9522 39.3473 19.4391 40.3598 20.325C41.3724 21.2109 42.0277 22.4352 42.2033 23.769C42.2955 24.4875 42.2434 25.2172 42.05 25.9153C41.8566 26.6134 41.5259 27.2659 41.0772 27.8346C40.6282 28.4101 40.0702 28.8914 39.435 29.2509C38.7998 29.6105 38.0999 29.8412 37.3755 29.93C34.3327 30.3134 31.5476 28.1743 31.167 25.1608C31.0748 24.4422 31.127 23.7125 31.3204 23.0144C31.5138 22.3163 31.8445 21.6637 32.2932 21.095C32.7422 20.5196 33.3002 20.0383 33.9354 19.6788C34.5706 19.3192 35.2704 19.0884 35.9948 18.9996C36.2292 18.9701 36.4652 18.9553 36.7015 18.9553ZM53.0086 43.4678V45.7178H21.6336V43.4678H53.0086ZM16.9883 23.9363C16.9768 24.792 17.0165 25.6477 17.1072 26.4988C17.0045 26.5134 16.9028 26.5315 16.8023 26.5533L15.6198 24.224C16.0651 24.0822 16.5236 23.9858 16.9883 23.9363ZM14.247 24.8339L15.1665 26.6451L13.4023 25.4093C13.6695 25.1971 13.9518 25.0048 14.247 24.8339ZM12.317 26.4803L14.3696 27.9178L11.7158 27.345C11.8943 27.0421 12.0952 26.753 12.317 26.4803ZM11.0868 28.725L13.607 29.2593C13.5068 29.5303 13.4289 29.8091 13.3741 30.0928H10.7922C10.8405 29.6276 10.9393 29.169 11.0868 28.7251V28.725ZM10.7586 31.5928H13.2586V32.7178H10.7586V31.5928ZM10.7586 34.2178H13.2586V35.2178H10.7586V34.2178ZM10.7586 36.7178H13.2586V38.0053L10.7586 37.7464V36.7178ZM10.7151 39.2503L13.2603 39.5079C13.1615 40.2728 12.907 41.0094 12.5125 41.6721L10.4125 40.1861C10.5624 39.8923 10.6646 39.5763 10.7151 39.2503ZM9.42759 41.3268L11.581 42.8508C11.1407 43.2792 10.6342 43.6337 10.081 43.9008L8.56172 41.7585C8.87116 41.6605 9.16343 41.5149 9.42797 41.3268H9.42759ZM6.86509 41.9593L8.58047 44.3784C8.26379 44.4329 7.94306 44.4605 7.62172 44.4609C7.54447 44.4609 7.46822 44.4658 7.39259 44.4725L5.19859 42.5148C5.71762 42.2341 6.28161 42.0462 6.86522 41.9593H6.86509ZM2.68759 48.3553C2.49759 47.6573 2.4583 46.9269 2.57234 46.2125L5.07622 46.8271C5.07409 46.8549 5.07309 46.8829 5.07197 46.9108L2.68759 48.3553ZM4.56647 51.1139C4.06312 50.737 3.63299 50.2712 3.29734 49.7395L5.48484 48.4145C5.56252 48.5318 5.64965 48.6426 5.74534 48.7458L4.56647 51.1139ZM5.63072 45.4186L3.02509 44.779C3.26799 44.2828 3.58937 43.8289 3.97684 43.435L5.89047 45.1428C5.79719 45.2281 5.71037 45.3203 5.63072 45.4185V45.4186ZM7.63359 52.0928H7.62184C7.03155 52.0993 6.44464 52.0028 5.88747 51.8078L7.04422 49.5053C7.23279 49.5564 7.42659 49.5857 7.62184 49.5928H7.63359V52.0928ZM10.1336 52.0928H9.13359V49.5928H10.1336V52.0928ZM12.7586 52.0928H11.6336V49.5928H12.7586V52.0928ZM15.2586 52.0928H14.2586V49.5928H15.2586V52.0928ZM17.7586 52.0928H16.7586V49.5928H17.7586V52.0928ZM17.8557 48.0928H7.62184C7.34096 48.09 7.07251 47.9765 6.8749 47.7769C6.67728 47.5773 6.56648 47.3077 6.56659 47.0268C6.56381 46.8893 6.58832 46.7527 6.63871 46.6247C6.6891 46.4968 6.76436 46.3801 6.86015 46.2815C6.95593 46.1829 7.07033 46.1042 7.19672 46.0501C7.32311 45.9959 7.45898 45.9674 7.59647 45.9661C9.49994 45.9618 11.3238 45.2017 12.6669 43.8529C14.01 42.5041 14.7624 40.677 14.7586 38.7735V30.8811C14.765 30.1756 15.0238 29.4956 15.4881 28.9643C15.9524 28.433 16.5915 28.0854 17.2898 27.9844C17.6115 29.8402 18.1712 31.6468 18.9551 33.3594C19.746 35.1012 20.1482 36.9944 20.1336 38.9073V45.8033C19.0086 46.0349 18.1126 46.9678 17.8557 48.0928ZM23.8836 54.4678H20.7645C20.3679 54.4657 19.9879 54.3081 19.7063 54.0288C19.4247 53.7496 19.264 53.371 19.2586 52.9744V48.7265C19.2634 48.3284 19.4235 47.9478 19.7048 47.666C19.9861 47.3841 20.3663 47.2233 20.7645 47.2178H23.8836V54.4678ZM49.3836 54.4678H25.3836V47.2178H49.3836V54.4678ZM55.5086 48.7265V52.9744C55.5086 53.7917 54.7925 54.4678 53.9752 54.4678H50.8836V47.2178H53.9752C54.3763 47.2223 54.76 47.3819 55.0459 47.6632C55.3318 47.9445 55.4976 48.3256 55.5086 48.7265ZM53.6388 39.0713L40.0397 30.6283C40.901 30.1658 41.6567 29.529 42.2586 28.7586C42.8299 28.0342 43.2509 27.2031 43.497 26.3139C43.743 25.4247 43.8091 24.4953 43.6915 23.5803C43.5133 22.2037 42.931 20.9109 42.0182 19.8652C41.1055 18.8195 39.9032 18.0678 38.5633 17.7053L50.9143 6.9999C53.0788 8.44309 54.9541 10.2786 56.4435 12.4115C58.3352 15.121 59.5354 18.2521 59.9393 21.5318C60.3427 24.7448 59.9824 28.0077 58.8877 31.0554C57.7929 34.103 55.9946 36.8493 53.6388 39.0713Z" fill="#F7F4F4" fill-opacity="0.6"/>
</svg>
